<?xml version="1.0" encoding="UTF-8"?>
<svg width="32px" height="32px" viewBox="0 0 32 32" version="1.1" xmlns="http://www.w3.org/2000/svg" xmlns:xlink="http://www.w3.org/1999/xlink">
    <!-- Generator: Sketch 50.2 (55047) - http://www.bohemiancoding.com/sketch -->
    <title>fewer-faster-mark</title>
    <desc>Created with Sketch.</desc>
    <defs>
        <linearGradient x1="44.3125%" y1="95.9921875%" x2="0%" y2="5.55111512e-15%" id="linearGradient-1">
            <stop stop-color="#EE0979" offset="0%"></stop>
            <stop stop-color="#FF5858" offset="100%"></stop>
        </linearGradient>
    </defs>
    <g id="Page-1" stroke="none" stroke-width="1" fill="none" fill-rule="evenodd">
        <g id="Artboard" transform="translate(-380.000000, -99.000000)" fill="url(#linearGradient-1)">
            <path d="M384,99 L408,99 C410.209139,99 412,100.790861 412,103 C412,105.209139 410.209139,107 408,107 L384,107 C381.790861,107 380,105.209139 380,103 C380,100.790861 381.790861,99 384,99 Z M384,111 L396,111 C398.209139,111 400,112.790861 400,115 C400,117.209139 398.209139,119 396,119 L384,119 C381.790861,119 380,117.209139 380,115 C380,112.790861 381.790861,111 384,111 Z M384,123 C386.209139,123 388,124.790861 388,127 C388,129.209139 386.209139,131 384,131 C381.790861,131 380,129.209139 380,127 C380,124.790861 381.790861,123 384,123 Z" id="fewer-faster-mark"></path>
        </g>
    </g>
</svg>